custom-analysis
version=1
nRows=4
nColumns=98
inDegrees=no

This file contains tibia displacement and acting force.

Units are S.I. units (seconds, meters, Newtons, ...)
Angles are in degrees.

endheader
time	APT	SIT	knee_angle	aACL_R_force	pACL_R_force	aPCL_R_force	pPCL_R_force	aMCL_R_force	mMCL_R_force	pMCL_R_force	aLCL_R_force	mLCL_R_force	pLCL_R_force	aPCL_L_force	pPCL_L_force	aMCL_L_force	aLCL_L_force	aACL_R_length	pACL_R_length	aPCL_R_length	pPCL_R_length	aMCL_R_length	mMCL_R_length	pMCL_R_length	aLCL_R_length	mLCL_R_length	pLCL_R_length	aPCL_L_length	pPCL_L_length	aMCL_L_length	aLCL_L_length	aACL_R_strain	pACL_R_strain	aPCL_R_strain	pPCL_R_strain	aMCL_R_strain	mMCL_R_strain	pMCL_R_strain	aLCL_R_strain	mLCL_R_strain	pLCL_R_strain	aPCL_L_strain	pPCL_L_strain	aMCL_L_strain	aLCL_L_strain	femur_lat_meniscii_r.femur_lat_r.force.X	femur_lat_meniscii_r.femur_lat_r.force.Y	femur_lat_meniscii_r.femur_lat_r.force.Z	femur_lat_meniscii_r.femur_lat_r.torque.X	femur_lat_meniscii_r.femur_lat_r.torque.Y	femur_lat_meniscii_r.femur_lat_r.torque.Z	femur_lat_meniscii_r.meniscus_lat_r.force.X	femur_lat_meniscii_r.meniscus_lat_r.force.Y	femur_lat_meniscii_r.meniscus_lat_r.force.Z	femur_lat_meniscii_r.meniscus_lat_r.torque.X	femur_lat_meniscii_r.meniscus_lat_r.torque.Y	femur_lat_meniscii_r.meniscus_lat_r.torque.Z	femur_med_meniscii_r.femur_med_r.force.X	femur_med_meniscii_r.femur_med_r.force.Y	femur_med_meniscii_r.femur_med_r.force.Z	femur_med_meniscii_r.femur_med_r.torque.X	femur_med_meniscii_r.femur_med_r.torque.Y	femur_med_meniscii_r.femur_med_r.torque.Z	femur_med_meniscii_r.meniscus_med_r.force.X	femur_med_meniscii_r.meniscus_med_r.force.Y	femur_med_meniscii_r.meniscus_med_r.force.Z	femur_med_meniscii_r.meniscus_med_r.torque.X	femur_med_meniscii_r.meniscus_med_r.torque.Y	femur_med_meniscii_r.meniscus_med_r.torque.Z	femur_med_tibia_r.tibia_upper_r.force.X	femur_med_tibia_r.tibia_upper_r.force.Y	femur_med_tibia_r.tibia_upper_r.force.Z	femur_med_tibia_r.tibia_upper_r.torque.X	femur_med_tibia_r.tibia_upper_r.torque.Y	femur_med_tibia_r.tibia_upper_r.torque.Z	femur_med_tibia_r.femur_med_r.force.X	femur_med_tibia_r.femur_med_r.force.Y	femur_med_tibia_r.femur_med_r.force.Z	femur_med_tibia_r.femur_med_r.torque.X	femur_med_tibia_r.femur_med_r.torque.Y	femur_med_tibia_r.femur_med_r.torque.Z	femur_lat_tibia_r.tibia_upper_r.force.X	femur_lat_tibia_r.tibia_upper_r.force.Y	femur_lat_tibia_r.tibia_upper_r.force.Z	femur_lat_tibia_r.tibia_upper_r.torque.X	femur_lat_tibia_r.tibia_upper_r.torque.Y	femur_lat_tibia_r.tibia_upper_r.torque.Z	femur_lat_tibia_r.femur_lat_r.force.X	femur_lat_tibia_r.femur_lat_r.force.Y	femur_lat_tibia_r.femur_lat_r.force.Z	femur_lat_tibia_r.femur_lat_r.torque.X	femur_lat_tibia_r.femur_lat_r.torque.Y	femur_lat_tibia_r.femur_lat_r.torque.Z	femur_lat_meniscii_force_r	femur_med_meniscii_force_r	femur_lat_tibia_force_r	femur_med_tibia_force_r
      0.16452061	      0.01284710	      0.01727062	     56.87896663	     -2.72171797	      0.00000000	    578.34060076	    374.97909384	      0.00000000	      0.00000000	      0.00000000	      0.00000000	      0.00000000	      0.00000000	      0.00000000	      0.00000000	      0.00000001	      0.00000000	      0.03121968	      0.02393862	      0.03495140	      0.03243325	      0.05953343	      0.05920547	      0.05630116	      0.05255263	      0.04782486	      0.04294534	      0.01525851	      0.01651186	      0.06550154	      0.04489616	      0.00690793	     -0.04469821	      0.12400904	      0.08516700	     -0.00822241	     -0.00983434	     -0.04132334	     -0.06117791	     -0.15081591	     -0.17953522	      0.00000079	     -0.32847694	      0.00000060	     -0.00000086	    104.06502727	    187.25662516	     22.35490222	    -13.54194339	      2.52507862	     40.66985291	   -104.06502727	   -187.25662516	    -22.35490222	      5.19259178	     -3.14330230	      3.37605584	     24.59967693	     22.17548325	     11.93368125	     -4.30670200	     -0.55665536	      9.86576096	    -24.59967693	    -22.17548325	    -11.93368125	     -0.26888251	      0.27376910	      0.09185712	   -755.86755606	   -689.73410421	    221.83711741	    -15.94624296	     17.06769664	     -1.25413650	    755.86755606	    689.73410421	   -221.83711741	    102.68070682	    -13.65661095	    307.39095501	      0.00000000	      0.00000000	      0.00000000	      0.00000000	      0.00000000	      0.00000000	      0.00000000	      0.00000000	      0.00000000	      0.00000000	      0.00000000	      0.00000000	    215.39339642	     35.20381955	      0.00000000	   1047.03419404
      0.16458461	      0.01285130	      0.01728289	     56.91343508	     -2.72797583	      0.00000000	    578.98397133	    375.28361151	      0.00000000	      0.00000000	      0.00000000	      0.00000000	      0.00000000	      0.00000000	      0.00000000	      0.00000000	      0.00000001	      0.00000000	      0.03121918	      0.02393842	      0.03495515	      0.03243541	      0.05953664	      0.05920607	      0.05630005	      0.05255048	      0.04782119	      0.04294083	      0.01525851	      0.01651186	      0.06550154	      0.04489616	      0.00689166	     -0.04470610	      0.12412983	      0.08523902	     -0.00816901	     -0.00982430	     -0.04134237	     -0.06121639	     -0.15088098	     -0.17962148	      0.00000079	     -0.32847694	      0.00000060	     -0.00000086	    104.18013263	    187.54671008	     22.32829303	    -13.53889912	      2.52672094	     40.71163232	   -104.18013263	   -187.54671008	    -22.32829303	      5.20022093	     -3.14493078	      3.38792424	     24.61769867	     22.11136015	     11.88386770	     -4.28787930	     -0.55715743	      9.87296091	    -24.61769867	    -22.11136015	    -11.88386770	     -0.26865622	      0.27510503	      0.09079699	   -756.36389836	   -690.10127223	    222.05868427	    -15.95099525	     17.08229649	     -1.22946630	    756.36389836	    690.10127223	   -222.05868427	    102.77433157	    -13.66544473	    307.58096569	      0.00000000	      0.00000000	      0.00000000	      0.00000000	      0.00000000	      0.00000000	      0.00000000	      0.00000000	      0.00000000	      0.00000000	      0.00000000	      0.00000000	    215.69844961	     35.15920430	      0.00000000	   1047.68133129
      0.16482855	      0.01286724	      0.01732966	     57.04481450	     -2.69416381	      0.00000000	    581.43809224	    376.46452575	      0.00000000	      0.00000000	      0.00000000	      0.00000000	      0.00000000	      0.00000000	      0.00000000	      0.00000000	      0.00000001	      0.00000000	      0.03121727	      0.02393769	      0.03496944	      0.03244360	      0.05954885	      0.05920837	      0.05629582	      0.05254221	      0.04780718	      0.04292359	      0.01525851	      0.01651186	      0.06550154	      0.04489616	      0.00682999	     -0.04473516	      0.12458920	      0.08551299	     -0.00796561	     -0.00978581	     -0.04141428	     -0.06136410	     -0.15112975	     -0.17995076	      0.00000079	     -0.32847694	      0.00000060	     -0.00000086	    105.41592343	    188.09695703	     22.20177721	    -13.50304415	      2.55948278	     41.21149429	   -105.41592343	   -188.09695703	    -22.20177721	      5.21390835	     -3.17833870	      3.38907125	     24.98348340	     22.04746570	     11.73459137	     -4.22858707	     -0.56688766	     10.02237730	    -24.98348340	    -22.04746570	    -11.73459137	     -0.27073880	      0.28673290	      0.08326098	   -759.03613342	   -689.72693339	    222.98420438	    -15.94524583	     17.15225758	     -1.21064083	    759.03613342	    689.72693339	   -222.98420438	    103.13599455	    -13.71294793	    308.64548119	      0.00000000	      0.00000000	      0.00000000	      0.00000000	      0.00000000	      0.00000000	      0.00000000	      0.00000000	      0.00000000	      0.00000000	      0.00000000	      0.00000000	    216.76231469	     35.32655971	      0.00000000	   1049.56231348
      0.16507249	      0.01288309	      0.01737647	     57.17620437	     -2.68216750	      0.00000000	    583.89943099	    377.69097605	      0.00000000	      0.00000000	      0.00000000	      0.00000000	      0.00000000	      0.00000000	      0.00000000	      0.00000000	      0.00000001	      0.00000000	      0.03121538	      0.02393701	      0.03498368	      0.03245177	      0.05956106	      0.05921070	      0.05629167	      0.05253386	      0.04779312	      0.04290633	      0.01525851	      0.01651186	      0.06550154	      0.04489616	      0.00676906	     -0.04476268	      0.12504711	      0.08578643	     -0.00776224	     -0.00974684	     -0.04148503	     -0.06151318	     -0.15137952	     -0.18028062	      0.00000079	     -0.32847694	      0.00000060	     -0.00000086	    107.04350063	    186.28021975	     21.17348810	    -13.02347343	      2.59556785	     41.89420963	   -107.04350063	   -186.28021975	    -21.17348810	      5.12865243	     -3.19702909	      3.30994403	     25.07609849	     21.89603449	     11.64429437	     -4.19544321	     -0.56807040	     10.05882534	    -25.07609849	    -21.89603449	    -11.64429437	     -0.26958321	      0.28902381	      0.08137313	   -761.63407986	   -689.32075236	    222.95530642	    -15.91211666	     17.19159779	     -1.19151718	    761.63407986	    689.32075236	   -222.95530642	    103.10161446	    -13.74940531	    309.68055360	      0.00000000	      0.00000000	      0.00000000	      0.00000000	      0.00000000	      0.00000000	      0.00000000	      0.00000000	      0.00000000	      0.00000000	      0.00000000	      0.00000000	    215.88642360	     35.26806818	      0.00000000	   1051.17012891
